HIERARCHY
ROOT Hips
{
  OFFSET -215.094 107.374 -232.209
  CHANNELS 6 Xposition Yposition Zposition Zrotation Xrotation Yrotation
  JOINT ToSpine
  {
    OFFSET -2.69724 7.43032 -0.144315
    CHANNELS 3 Zrotation Xrotation Yrotation
    JOINT Spine
    {
      OFFSET -0.0310711 10.7595 1.96963
      CHANNELS 3 Zrotation Xrotation Yrotation
      JOINT Spine1
      {
        OFFSET 13.1342 3.43533 0.764692
        CHANNELS 3 Zrotation Xrotation Yrotation
        JOINT Neck
        {
          OFFSET 29.8703 7.82586 -0.130764
          CHANNELS 3 Zrotation Xrotation Yrotation
          JOINT Head
          {
            OFFSET 9.52751 0.295786 -0.907742
            CHANNELS 3 Zrotation Xrotation Yrotation
            End Site
            {
              OFFSET 16.4037 0.713936 2.7358
            }
          }
        }
        JOINT LeftShoulder
        {
          OFFSET 27.5574 4.95586 2.47156
          CHANNELS 3 Zrotation Xrotation Yrotation
          JOINT LeftArm
          {
            OFFSET 1.20734 -0.998971 20.1238
            CHANNELS 3 Zrotation Xrotation Yrotation
            JOINT LeftForeArm
            {
              OFFSET 26.8049 -0.0536703 -0.155908
              CHANNELS 3 Zrotation Xrotation Yrotation
              JOINT LeftHand
              {
                OFFSET 26.6817 0 0.320147
                CHANNELS 3 Zrotation Xrotation Yrotation
                End Site
                {
                  OFFSET 18.6119 0 0.382219
                }
              }
            }
          }
        }
        JOINT RightShoulder
        {
          OFFSET 27.5927 4.71444 -2.65209
          CHANNELS 3 Zrotation Xrotation Yrotation
          JOINT RightArm
          {
            OFFSET 2.83739 -1.17114 -18.7564
            CHANNELS 3 Zrotation Xrotation Yrotation
            JOINT RightForeArm
            {
              OFFSET 28.839 -0.0548439 1.22491
              CHANNELS 3 Zrotation Xrotation Yrotation
              JOINT RightHand
              {
                OFFSET 26.5114 0 -0.101894
                CHANNELS 3 Zrotation Xrotation Yrotation
                End Site
                {
                  OFFSET 18.2168 0 0
                }
              }
            }
          }
        }
      }
    }
  }
  JOINT LeftUpLeg
  {
    OFFSET -4.76168 -1.9167 -10.2353
    CHANNELS 3 Zrotation Xrotation Yrotation
    JOINT LeftLeg
    {
      OFFSET 2.55951 -42.0585 -8.02213
      CHANNELS 3 Zrotation Xrotation Yrotation
      JOINT LeftFoot
      {
        OFFSET 3.16357 -42.5282 -3.95426
        CHANNELS 3 Zrotation Xrotation Yrotation
        JOINT LeftToeBase
        {
          OFFSET 0.346054 -6.02161 12.8035
          CHANNELS 3 Zrotation Xrotation Yrotation
          End Site
          {
            OFFSET 0.134235 -1.35082 5.13018
          }
        }
      }
    }
  }
  JOINT RightUpLeg
  {
    OFFSET -4.94151 -1.41743 10.6446
    CHANNELS 3 Zrotation Xrotation Yrotation
    JOINT RightLeg
    {
      OFFSET -2.56294 -42.0364 -7.94377
      CHANNELS 3 Zrotation Xrotation Yrotation
      JOINT RightFoot
      {
        OFFSET -3.0952 -42.555 -4.02241
        CHANNELS 3 Zrotation Xrotation Yrotation
        JOINT RightToeBase
        {
          OFFSET -0.0828122 -6.13587 12.8035
          CHANNELS 3 Zrotation Xrotation Yrotation
          End Site
          {
            OFFSET -0.131328 -1.35082 5.13018
          }
        }
      }
    }
  }
}
MOTION
Frames:	20
Frame Time:	0.0333333
63.1518 95.9544 -9.79497 66.6843 -27.9446 -16.313 -70.1915 0 88.8779 79.4384 68.581 1.89946 1.56104 17.1857 4.06384 -151.973 23.4199 172.185 -149.721 62.0583 -179.79 0.234336 -14.2677 -30.3317 -75.2104 46.3785 -89.7881 14.1385 12.9287 -47.9378 0.420957 0.000575251 0.35866 -1.74273 5.24342 47.7452 -68.3736 -36.4063 77.0124 4.32962 -19.4748 23.8882 0.58676 0.000330719 0.0646653 -59.6229 -7.57746 99.2864 -1.24277 30.5568 -18.5003 4.57524 -12.0401 -1.15079 3.58781 -8.50816 3.32474 -30.0658 -4.56914 84.1594 1.0945 35.0502 -1.8815 -5.17491 -3.89861 0.944404 2.35244 -20.0808 -8.63904 
67.4802 95.0227 -6.06079 66.3414 -26.5306 -16.3555 -70.1915 0 88.8779 74.5651 67.7826 5.42604 3.06213 16.2901 5.03763 -153.128 22.9811 171.792 -149.417 61.4931 179.271 0.269923 -14.2643 -29.408 -75.6896 43.7135 -93.3703 14.2493 11.4427 -51.5455 0.420957 0.000575251 0.35866 -1.64806 5.00211 47.5296 -70.2221 -36.9966 73.8268 4.44985 -21.7051 23.5855 0.58676 0.000330719 0.0646653 -63.1696 -7.02218 99.6155 -1.0487 30.072 -24.2892 4.11132 -12.6717 -1.16817 4.49189 -11.4399 10.8333 -29.6511 -4.32903 85.2897 1.40789 20.8121 3.54378 -11.7425 0.382142 1.67829 1.95064 -29.9911 -16.8662 
71.9067 93.8322 -2.17199 66.4857 -24.7819 -16.0321 -70.1915 0 88.8779 70.5176 66.7015 7.76988 4.53341 15.1061 6.14235 -154.009 22.5656 170.861 -147.552 60.6619 176.593 0.350689 -14.0241 -28.4239 -77.3901 41.5899 -95.9704 13.4964 9.86792 -54.0192 0.420957 0.000575251 0.35866 -1.54723 4.61538 48.1505 -73.1961 -36.1531 69.9406 5.19852 -24.1074 23.6319 0.58676 0.000330719 0.0646653 -66.1703 -5.62495 99.8412 -0.918944 31.1792 -26.9939 4.88791 -13.5105 -1.21301 5.19233 -12.4011 9.14128 -28.4619 -4.57262 85.981 1.40262 12.3542 6.95366 -12.2884 1.964 1.79616 1.0192 -33.6 -22.4598 
76.3164 92.4276 1.77566 67.2177 -24.4434 -15.9792 -70.1915 0 88.8779 70.5143 66.6455 6.13273 5.05046 14.5838 7.16975 -154.236 21.9557 169.549 -145.662 59.6331 174.419 0.41355 -13.8596 -27.4488 -78.9906 40.1673 -98.3272 14.1046 10.082 -54.6714 0.420957 0.000575251 0.35866 -1.436 4.28683 48.2143 -79.0301 -34.4362 65.3041 5.44592 -27.3414 23.1376 0.58676 0.000330719 0.0646653 -69.8558 -4.83208 98.9253 -0.891883 32.4709 -27.4995 3.99587 -12.826 -1.1732 7.27094 -15.8236 7.19731 -26.4052 -4.74914 85.9584 1.01011 12.7672 4.05608 0.875387 -8.5548 0.761534 2.21168 -16.8453 -10.1085 
81.007 90.6949 6.12303 67.3535 -24.6252 -15.9412 -70.1915 0 88.8779 70.0695 66.3867 6.01957 4.96201 14.3036 7.54358 -154.093 21.3898 168.923 -145.068 58.8946 173.631 0.462212 -13.7621 -26.4789 -81.3419 39.9052 -97.2664 14.9906 10.0103 -56.5281 0.420957 0.000575251 0.35866 -1.42588 4.24426 48.3147 -80.8139 -33.8268 62.822 5.01037 -25.7964 22.9539 0.58676 0.000330719 0.0646653 -72.4552 -4.32482 94.7773 -1.79539 35.5813 -25.1678 1.78512 -12.7357 -1.13222 8.24336 -17.4945 6.02001 -24.852 -3.18995 86.2908 -0.626672 19.2366 11.4685 14.4032 -19.2999 2.2851 5.13056 1.05799 -30.7394 
85.8634 89.9945 10.445 67.6897 -26.5319 -13.6944 -70.1915 0 88.8779 74.5311 66.4873 3.91819 4.42833 13.763 8.65545 -153.845 20.7471 170.536 -146.479 58.3771 174.305 0.540016 -13.2354 -26.7778 -83.1633 40.2461 -94.0337 15.5942 9.84179 -58.0214 0.420957 0.000575251 0.35866 -1.42847 4.44054 46.9594 -85.1982 -32.0867 59.21 4.38886 -27.5555 22.0265 0.58676 0.000330719 0.0646653 -75.6061 -2.04184 90.1619 -3.50011 37.5162 -18.2856 0.0805701 -7.18736 -0.661469 11.2303 -22.9843 3.13187 -22.5307 -0.36092 85.5731 0.849728 29.5305 -2.57531 -1.85094 -0.515037 0.417221 2.40643 -19.8291 -3.82756 
90.6841 89.4806 14.8462 67.8345 -28.5234 -10.2115 -70.1915 0 88.8779 76.8939 65.7505 6.39353 5.49725 13.6511 8.02066 -153.879 20.2812 171.682 -146.619 57.7631 173.641 0.591629 -12.7586 -27.945 -83.6761 40.003 -90.908 15.1401 9.06728 -59.2851 0.420957 0.000575251 0.35866 -1.56785 4.72427 47.8159 -89.0964 -27.4599 57.2306 4.25306 -31.8672 20.971 0.58676 0.000330719 0.0646653 -75.4146 2.77521 90.5373 -3.93208 43.7921 -15.85 -3.43851 1.78627 0.54615 13.9224 -28.4727 0.0198483 -22.426 4.26489 84.6473 1.50199 37.2327 0.0204 -4.46913 3.41131 0.595418 2.26425 -18.4272 -15.3848 
95.2965 89.2737 18.9373 68.5392 -30.4941 -8.9968 -70.1915 0 88.8779 84.2742 66.4914 0.53298 3.39585 14.0268 8.60365 -154.122 20.0459 172.032 -146.849 57.4946 173.468 0.514874 -13.0572 -28.8529 -83.901 40.7659 -87.3142 13.6325 8.43022 -58.3772 0.420957 0.000575251 0.35866 -1.53565 4.73113 47.1443 -90.5973 -26.2946 57.9066 3.17816 -32.2555 19.9537 0.58676 0.000330719 0.0646653 -72.6295 4.39448 90.572 -5.37022 53.5453 -14.1691 -9.98352 10.4938 2.92338 8.53018 -17.9827 2.26878 -23.3776 6.2972 83.0242 2.05311 44.4023 -0.211191 -4.56246 -2.38033 0.827958 2.30435 -9.19899 -14.5139 
99.5308 90.0556 22.918 68.9728 -31.7074 -8.15706 -70.1915 0 88.8779 88.8274 67.1399 -2.41704 2.28459 14.8756 7.92562 -154.004 20.5125 172.132 -148.68 58.4004 175.381 0.422812 -13.431 -29.6137 -82.0158 41.386 -87.0083 12.2173 8.71969 -54.5704 0.420957 0.000575251 0.35866 -1.6003 5.02906 46.4788 -92.9244 -26.8133 58.7821 3.39723 -32.4525 19.8367 0.58676 0.000330719 0.0646653 -66.8692 5.40851 89.7757 -8.05744 64.0626 -8.84357 -11.332 14.7395 3.96321 4.80501 -11.4903 7.33159 -26.8966 7.46585 80.7964 1.8603 46.212 -2.94484 -8.14698 -6.71015 1.2494 1.1283 -4.2455 -4.9667 
103.794 91.586 26.6079 69.2497 -33.0284 -8.26113 -70.1915 0 88.8779 93.2133 68.2982 -5.05361 1.13569 16.5174 6.326 -153.983 21.2564 172.533 -151.234 59.6535 177.956 0.383605 -13.5369 -30.2203 -78.0522 42.1444 -89.5228 12.008 10.2369 -49.7061 0.420957 0.000575251 0.35866 -1.61604 5.30133 45.1588 -89.9483 -31.249 62.2736 4.86144 -28.0025 21.9239 0.58676 0.000330719 0.0646653 -60.1014 5.36147 89.8566 -12.1878 71.8926 -1.97451 -3.02065 9.5104 1.28225 5.68104 -12.7519 4.75269 -32.2291 9.24294 82.0788 2.12696 44.7104 -0.106104 -5.0353 -10.6135 1.16109 2.20957 3.26422 -13.7434 
108.142 93.2723 30.3397 69.1265 -34.0894 -10.0638 -70.1915 0 88.8779 92.4602 69.6912 -4.81146 0.847412 18.2322 5.3864 -153.564 21.74 172.105 -151.612 60.1664 177.437 0.294448 -13.8261 -31.1618 -76.052 43.1707 -90.0292 12.8812 13.8715 -43.2205 0.420957 0.000575251 0.35866 -1.6498 5.46245 44.8538 -77.1031 -36.094 71.9999 3.84896 -17.1569 23.6992 0.58676 0.000330719 0.0646653 -53.438 3.71579 90.8244 -14.3308 74.631 2.46293 -1.99311 5.46598 0.684935 6.27816 -14.1425 7.88987 -37.6935 9.60095 83.937 1.99565 42.1479 0.5943 -8.22463 -10.4823 1.27888 2.29596 -0.962563 -14.2382 
112.125 94.7833 34.0737 69.3817 -35.1608 -11.0219 -70.1915 0 88.8779 94.7895 70.6259 -7.77602 -0.0315978 19.5129 4.66233 -152.622 22.1173 171.391 -152.104 60.6981 177.987 0.35621 -13.5411 -31.0736 -73.8152 45.3982 -89.8349 10.2509 13.7976 -36.7973 0.420957 0.000575251 0.35866 -1.69912 5.68178 44.5194 -72.0142 -37.8928 78.5915 6.0721 -13.8711 26.4124 0.58676 0.000330719 0.0646653 -46.9934 3.35356 92.084 -13.1426 74.1035 3.4483 -1.31784 3.22969 0.367678 6.87064 -15.2231 8.77224 -43.7187 10.2448 85.804 1.67245 38.5545 0.216058 -5.52298 -11.972 1.22059 2.17024 1.85033 -13.5014 
116.23 95.8152 37.4467 68.4064 -37.1527 -13.0037 -70.1915 0 88.8779 97.016 71.8192 -9.51422 -1.16064 21.314 3.3932 -152.568 22.0355 171.922 -153.36 60.7299 178.572 0.363615 -13.4366 -31.5412 -72.1476 46.7295 -88.841 9.96604 16.3321 -31.6124 0.420957 0.000575251 0.35866 -1.74778 5.8834 44.2855 -68.2823 -37.2955 84.1023 7.06774 -12.3951 30.1784 0.58676 0.000330719 0.0646653 -41.0115 2.98695 93.9073 -9.26137 70.0257 1.94522 -0.644554 0.165857 0.00688963 6.74278 -14.9206 7.4989 -48.2137 10.065 86.5932 1.07406 36.0288 0.532993 -5.17663 -12.0482 1.21445 1.23573 0.400405 -7.79677 
120.409 96.299 40.8944 67.2172 -38.772 -14.5898 -70.1915 0 88.8779 97.455 72.7805 -9.54769 -1.6113 22.5286 2.72675 -152.135 22.7571 172.955 -156.33 61.8842 -177.677 0.310318 -13.5843 -32.2426 -73.7159 48.0741 -84.9268 8.16543 17.9896 -27.3972 0.420957 0.000575251 0.35866 -1.71189 6.02781 42.9986 -65.5755 -36.4291 90.0469 8.29559 -12.8149 33.4509 0.58676 0.000330719 0.0646653 -36.2269 2.73172 94.5592 -6.21048 62.5949 -2.38154 -0.0312271 -2.10348 -0.251101 7.14022 -15.8262 11.7151 -52.4186 9.59828 85.7318 0.277688 33.4907 2.7915 -7.04962 -10.3933 1.23233 1.29978 -6.60011 -4.83695 
124.597 96.4433 44.2329 65.0813 -40.4349 -16.8649 -70.1915 0 88.8779 96.6667 73.6976 -8.15217 -1.85522 23.6137 1.96757 -153.634 22.6669 174.217 -157.462 61.8263 -177.077 0.351457 -13.352 -32.5563 -80.5821 48.6646 -77.0094 8.43266 26.0104 -25.0692 0.420957 0.000575251 0.35866 -1.70809 6.38735 41.3068 -64.4664 -35.437 95.2822 9.32506 -12.6549 36.9607 0.58676 0.000330719 0.0646653 -32.3326 2.53214 94.6016 -3.84443 51.5597 -5.31574 -0.269003 -3.56752 -0.343269 7.29028 -16.0859 12.2034 -55.3073 8.74674 84.8014 -0.305757 32.716 7.61794 -4.19548 -13.0594 1.23341 1.23874 -2.44667 -6.74277 
129.077 96.0286 47.3902 62.9009 -42.7451 -18.7548 -70.1915 0 88.8779 101.103 74.5165 -10.8339 -3.17861 24.8338 1.3098 -155.245 22.7401 176.687 -160.99 62.1458 -174.177 0.325991 -13.3387 -33.5184 -87.2187 48.5366 -68.4384 9.03997 31.964 -23.9583 0.420957 0.000575251 0.35866 -1.6671 6.75119 39.2076 -63.7896 -34.3085 99.6081 10.002 -11.8637 40.721 0.58676 0.000330719 0.0646653 -30.2742 3.21617 94.2834 -2.67849 38.3916 -8.89587 -1.56385 -3.89444 -0.246625 9.7434 -19.7135 18.7113 -58.7074 7.94555 83.6707 -0.627343 31.5794 11.7512 -4.59534 -14.3989 1.29194 1.23714 -3.75236 -6.1004 
133.491 95.4114 50.6217 61.054 -44.6314 -20.7344 -70.1915 0 88.8779 101.83 75.249 -10.1728 -2.46031 26.0465 -0.333076 -156.465 22.501 177.582 -161.158 61.9205 -174.232 0.465561 -12.7315 -33.4873 -91.1254 48.6141 -62.8365 9.30013 36.6026 -22.9699 0.420957 0.000575251 0.35866 -1.62573 7.09984 37.337 -65.0682 -33.503 103.205 13.0928 -13.7006 44.5067 0.58676 0.000330719 0.0646653 -29.639 3.0907 92.7975 -0.591568 24.4591 -9.24715 -2.2954 -6.1374 -0.399411 9.38358 -19.272 16.1175 -62.396 6.62076 82.8658 -0.799495 30.3486 16.4663 -4.3741 -15.5042 1.33686 1.68117 -5.34824 -8.98666 
137.917 94.5441 53.9965 59.6975 -46.4675 -22.4676 -70.1915 0 88.8779 102.007 75.9407 -9.59789 -1.13487 27.1514 -1.76462 -157.988 22.3167 178.51 -162.002 61.8319 -173.627 0.681509 -11.8072 -33.1297 -93.4146 49.1564 -58.4952 10.0588 38.6439 -23.0577 0.420957 0.000575251 0.35866 -1.62021 7.43681 36.1406 -67.0992 -32.5317 105.353 14.4846 -13.3895 48.1318 0.58676 0.000330719 0.0646653 -27.6094 4.15084 93.3389 -0.167175 18.0411 -7.50722 -2.32182 -6.82739 -0.466329 9.95853 -20.1716 13.9991 -65.9673 5.63459 83.5611 -1.33294 29.7451 16.9241 -4.98625 -15.2375 1.32323 1.59613 -10.3931 -4.69954 
142.598 93.4801 57.4895 58.9628 -48.473 -23.8456 -70.1915 0 88.8779 106.638 76.6493 -13.7887 -0.974159 28.5019 -2.72595 -158.43 22.2832 178.768 -162.965 61.8811 -172.73 0.893004 -10.8707 -32.8137 -95.0859 49.1638 -55.3658 10.8266 42.0268 -22.9065 0.420957 0.000575251 0.35866 -1.63412 7.70716 35.4893 -69.7746 -32.2272 105.546 16.9993 -13.9909 51.6334 0.58676 0.000330719 0.0646653 -26.4273 4.81984 93.3455 -0.57262 17.8575 -9.24798 -2.88719 -6.31071 -0.37279 11.3909 -21.833 20.3606 -68.9212 4.51257 85.3914 -1.73558 32.151 21.7084 -5.35789 -14.1766 1.28731 2.18708 -15.1629 -11.3322 
147.626 92.0135 61.3931 59.755 -49.1062 -23.9002 -70.1915 0 88.8779 112.232 76.6738 -20.8962 -2.65606 28.7578 -1.68368 -158.008 22.3122 177.373 -161.741 61.7949 -174.305 0.909966 -10.803 -32.4626 -95.7909 48.862 -52.895 11.1038 44.3437 -22.7156 0.420957 0.000575251 0.35866 -1.64212 7.54514 36.0938 -72.2624 -31.94 103.601 19.2253 -14.0018 55.1925 0.58676 0.000330719 0.0646653 -24.8243 4.04287 93.195 -1.41565 25.4922 -8.39155 -2.47115 -7.41642 -0.515676 10.7101 -21.0659 17.9418 -71.6826 4.06538 91.328 -0.227953 36.0145 14.7068 -3.24206 -12.1316 1.17138 2.5241 -21.1175 -4.02604 
